<?xml version="1.0" encoding="UTF-8"?>
<!--
  Horizontal logo — currentColor fill so it adapts to any context.
  Use class="text-ink" for dark, class="text-chalk" for light backgrounds.

  Original stacked SVG had:
    ALLÔ group: approx x 48–980, y 65–340 (height ~275)
    PIXEL group: approx x 21–980, y 407–651 (height ~244)

  Horizontal: ALLÔ shifted to (0,0), PIXEL placed to its right.
-->
<svg xmlns="http://www.w3.org/2000/svg" viewBox="0 0 1980 285" aria-label="Allôpixel">
  <defs>
    <style>.l { fill: currentColor; stroke-width: 0px; }</style>
  </defs>

  <!-- ALLÔ — translate(-48, -65) so top-left lands at origin -->
  <g transform="translate(-48,-65)">
    <path class="l" d="m48.28,336.28v-3.42h9.94c5.02,0,9.25-.8,12.68-2.39,3.43-1.59,6.39-4.32,8.91-8.2,2.51-3.87,4.91-9.22,7.2-16.05l74.71-213.81h17.48l86.02,222.35c1.83,4.56,3.65,8.14,5.48,10.76,1.83,2.62,3.94,4.5,6.34,5.64,2.4,1.14,5.19,1.71,8.4,1.71h4.46v3.42h-94.25v-3.42h7.88c8.68,0,14.96-1.02,18.85-3.07,3.88-2.05,5.83-5.69,5.83-10.93,0-1.37-.12-2.79-.34-4.27-.23-1.48-.51-3.13-.86-4.95-.34-1.82-.97-3.76-1.88-5.81l-20.91-56.02h-92.87l-18.85,53.62c-.69,1.83-1.26,3.65-1.71,5.46-.46,1.83-.8,3.47-1.03,4.95-.23,1.48-.34,2.9-.34,4.27,0,6.15,2.74,10.48,8.22,12.98,5.48,2.51,14.28,3.76,26.39,3.76h7.88v3.42H48.28Zm64.09-91.88h90.48l-25.02-66.6c-2.97-7.74-5.71-15.14-8.23-22.2-2.52-7.06-4.86-13.83-7.03-20.32-2.17-6.49-4.17-12.81-6-18.96-1.6,5.01-3.08,9.62-4.46,13.83-1.37,4.22-2.74,8.37-4.11,12.47-1.37,4.1-2.91,8.49-4.63,13.15-1.71,4.67-3.6,10.08-5.66,16.22l-25.36,72.41Z"/>
    <path class="l" d="m302.91,336.28v-3.42h4.46c6.17,0,11.36-.91,15.59-2.73,4.22-1.82,7.37-4.55,9.42-8.2,2.06-3.64,3.08-8.2,3.08-13.66V119.05c0-5.24-1.03-9.56-3.08-12.98-2.06-3.42-5.2-5.98-9.42-7.69-4.23-1.71-9.42-2.56-15.59-2.56h-4.46v-3.42h99.73v3.42h-4.46c-6.17,0-11.37.91-15.59,2.73-4.23,1.83-7.37,4.56-9.42,8.2-2.06,3.65-3.08,8.2-3.08,13.66v212.45h63.4c12.11,0,21.76-1.76,28.96-5.29,7.2-3.53,12.51-9.62,15.94-18.27,3.43-8.65,5.6-20.38,6.51-35.18l.69-11.27h3.43l-2.4,73.43h-183.69Z"/>
    <path class="l" d="m516.41,336.28v-3.42h4.46c6.17,0,11.36-.91,15.59-2.73,4.22-1.82,7.37-4.55,9.42-8.2,2.06-3.64,3.08-8.2,3.08-13.66V119.05c0-5.24-1.03-9.56-3.08-12.98-2.06-3.42-5.2-5.98-9.42-7.69-4.23-1.71-9.42-2.56-15.59-2.56h-4.46v-3.42h99.73v3.42h-4.46c-6.17,0-11.37.91-15.59,2.73-4.23,1.83-7.37,4.56-9.42,8.2-2.06,3.65-3.08,8.2-3.08,13.66v212.45h63.4c12.11,0,21.76-1.76,28.96-5.29,7.2-3.53,12.51-9.62,15.94-18.27,3.43-8.65,5.6-20.38,6.51-35.18l.69-11.27h3.43l-2.4,73.43h-183.69Z"/>
    <path class="l" d="m844.03,339.69c-24.22,0-44.33-5.24-60.32-15.71-16-10.47-27.93-25.16-35.81-44.06-7.88-18.9-11.82-40.99-11.82-66.26s3.94-47.25,11.82-65.92c7.88-18.67,19.88-33.18,35.98-43.55,16.11-10.36,36.27-15.54,60.49-15.54s42.55,5.18,58.43,15.54c15.88,10.36,27.98,24.93,36.33,43.72,8.34,18.79,12.51,40.82,12.51,66.09s-4.17,47.31-12.51,66.09c-8.34,18.79-20.51,33.42-36.5,43.89-16,10.48-35.53,15.71-58.6,15.71Zm0-3.42c12.11,0,22.56-2.33,31.36-7,8.79-4.66,15.99-11.95,21.59-21.86,5.6-9.91,9.77-22.6,12.51-38.08,2.74-15.48,4.11-33.93,4.11-55.33s-1.37-39.79-4.11-55.16c-2.74-15.37-6.91-28.01-12.51-37.91-5.6-9.91-12.74-17.19-21.42-21.86-8.69-4.66-19.08-7-31.19-7s-22.91,2.34-31.7,7c-8.8,4.67-16.05,11.95-21.76,21.86-5.71,9.91-9.94,22.54-12.68,37.91-2.74,15.37-4.11,33.76-4.11,55.16s1.37,39.85,4.11,55.33c2.74,15.49,6.91,28.18,12.51,38.08,5.6,9.9,12.79,17.19,21.59,21.86,8.79,4.67,19.36,7,31.7,7Zm-50.38-266.76c4.57-5.01,9.14-10.47,13.71-16.39,4.57-5.92,8.96-11.95,13.19-18.1,4.23-6.15,7.82-11.73,10.8-16.74h25.7c2.97,5.01,6.56,10.59,10.79,16.74,4.22,6.15,8.68,12.18,13.37,18.1,4.68,5.92,9.19,11.39,13.54,16.39v3.42h-3.43c-4.34-2.5-9.54-5.75-15.59-9.73-6.06-3.98-11.94-8.14-17.65-12.47-5.71-4.32-10.28-8.31-13.71-11.95-3.43,3.65-8.05,7.63-13.88,11.95-5.83,4.33-11.77,8.49-17.82,12.47-6.06,3.99-11.26,7.23-15.59,9.73h-3.43v-3.42Z"/>
  </g>

  <!-- PIXEL — translate(985, -407) so it sits to the right of ALLÔ at the same baseline -->
  <g transform="translate(985,-407)">
    <path class="l" d="m21.16,650.63v-3.42h4.46c6.17,0,11.36-.91,15.59-2.73,4.22-1.82,7.37-4.55,9.42-8.2,2.06-3.64,3.08-8.2,3.08-13.66v-189.22c0-5.24-1.03-9.56-3.08-12.98-2.06-3.42-5.2-5.98-9.42-7.68-4.23-1.71-9.42-2.56-15.59-2.56h-4.46v-3.42h96.3c28.79,0,50.04,6.32,63.74,18.96s20.56,30.12,20.56,52.43c0,10.25-1.6,19.98-4.8,29.2-3.2,9.22-8.4,17.48-15.59,24.76-7.2,7.29-16.68,13.04-28.45,17.25-11.77,4.22-26.1,6.32-43.01,6.32h-21.59v66.94c0,5.46,1.03,10.02,3.08,13.66,2.06,3.64,5.19,6.38,9.42,8.2,4.23,1.83,9.42,2.73,15.59,2.73h4.46v3.42H21.16Zm85.33-98.37c10.51,0,19.42-1.37,26.73-4.1,7.31-2.73,13.31-7,17.99-12.81,4.68-5.81,8.11-13.32,10.28-22.54,2.17-9.22,3.26-20.32,3.26-33.3,0-16.62-1.77-30-5.31-40.13-3.54-10.13-9.2-17.53-16.96-22.2-7.77-4.66-18.05-7-30.84-7h-23.3v142.09h18.16Z"/>
    <path class="l" d="m228.15,650.63v-3.42h4.46c6.17,0,11.36-.91,15.59-2.73,4.22-1.82,7.37-4.55,9.42-8.2,2.06-3.64,3.08-8.2,3.08-13.66v-189.22c0-5.24-1.03-9.56-3.08-12.98-2.06-3.42-5.2-5.98-9.42-7.68-4.23-1.71-9.42-2.56-15.59-2.56h-4.46v-3.42h99.73v3.42h-4.46c-6.17,0-11.37.91-15.59,2.73-4.23,1.83-7.37,4.56-9.42,8.2-2.06,3.65-3.08,8.2-3.08,13.66v187.86c0,5.46,1.03,10.02,3.08,13.66,2.06,3.64,5.19,6.38,9.42,8.2,4.23,1.83,9.42,2.73,15.59,2.73h4.46v3.42h-99.73Z"/>
    <path class="l" d="m343.64,650.63v-3.42h7.54c4.57,0,8.62-.74,12.17-2.22,3.54-1.48,7.03-4.04,10.45-7.68,3.43-3.64,7.2-8.54,11.31-14.69l56.89-86.41-60.32-107.59c-2.52-4.78-5.14-8.48-7.88-11.1-2.74-2.62-5.77-4.49-9.08-5.64-3.31-1.14-7.49-1.71-12.51-1.71h-4.11v-3.42h92.87v3.42h-3.08c-6.4,0-11.14.74-14.22,2.22-3.08,1.48-4.63,4.04-4.63,7.68,0,2.28.63,5.07,1.88,8.37,1.25,3.3,3.14,7.23,5.65,11.78l37.7,66.95,43.52-66.26c3.2-5.01,5.66-9.28,7.37-12.81,1.71-3.53,2.57-6.43,2.57-8.71,0-3.42-1.66-5.81-4.97-7.17-3.31-1.37-8.28-2.05-14.91-2.05h-16.79v-3.42h75.05v3.42h-6.17c-4.34,0-8.34.74-12,2.22-3.66,1.48-7.2,3.99-10.62,7.51-3.43,3.53-7.2,8.49-11.31,14.86l-50.04,76.17,66.14,117.84c2.74,4.56,5.42,8.2,8.05,10.93,2.62,2.73,5.66,4.67,9.08,5.81,3.43,1.14,7.54,1.71,12.34,1.71h2.74v3.42h-92.53v-3.42h4.11c6.39,0,11.14-.74,14.22-2.22,3.08-1.48,4.63-4.04,4.63-7.68,0-2.27-.63-5.12-1.88-8.54-1.26-3.42-3.14-7.29-5.66-11.61l-43.52-77.53-50.38,76.85c-2.06,3.19-3.83,6.15-5.31,8.88-1.49,2.73-2.63,5.12-3.43,7.17-.8,2.05-1.2,3.88-1.2,5.46,0,3.42,1.65,5.81,4.97,7.17,3.31,1.37,8.28,2.05,14.91,2.05h21.93v3.42h-81.56Z"/>
    <path class="l" d="m580.1,650.63v-3.42h4.46c6.17,0,11.36-.91,15.59-2.73,4.22-1.82,7.37-4.55,9.42-8.2,2.06-3.64,3.08-8.2,3.08-13.66v-189.22c0-5.24-1.03-9.56-3.08-12.98-2.06-3.42-5.2-5.98-9.42-7.68-4.23-1.71-9.42-2.56-15.59-2.56h-4.46v-3.42h172.38l2.06,59.77h-3.43l-.69-11.27c-.69-11.38-2.63-20.38-5.83-26.98-3.2-6.6-8.17-11.27-14.91-14-6.74-2.73-15.94-4.1-27.59-4.1h-54.83v111.01h86.02v3.42h-86.02v122.62h63.4c12.34,0,22.16-1.37,29.47-4.1,7.31-2.73,12.62-7.4,15.94-14,3.31-6.6,5.31-15.59,6-26.98l.69-11.27h3.43l-2.4,59.77h-183.69Z"/>
    <path class="l" d="m793.61,650.63v-3.42h4.46c6.17,0,11.36-.91,15.59-2.73,4.22-1.82,7.37-4.55,9.42-8.2,2.06-3.64,3.08-8.2,3.08-13.66v-189.22c0-5.24-1.03-9.56-3.08-12.98-2.06-3.42-5.2-5.98-9.42-7.68-4.23-1.71-9.42-2.56-15.59-2.56h-4.46v-3.42h99.73v3.42h-4.46c-6.17,0-11.37.91-15.59,2.73-4.23,1.83-7.37,4.56-9.42,8.2-2.06,3.65-3.08,8.2-3.08,13.66v212.45h63.4c12.11,0,21.76-1.76,28.96-5.29,7.2-3.53,12.51-9.62,15.94-18.27,3.43-8.65,5.6-20.38,6.51-35.18l.69-11.27h3.43l-2.4,73.43h-183.69Z"/>
  </g>
</svg>
